<svg width="1920" height="268"  fill="none" xmlns="http://www.w3.org/2000/svg">
<symbol viewBox="0 0 1920 268" id="pin-h">
<g clip-path="url(#clip0_1_300)">
<rect width="1920" height="268" fill="black"/>
<g filter="url(#filter0_d_1_300)">
<path d="M840.446 174L841.335 168.209H835.778V164.451C835.778 162.866 836.554 161.322 839.043 161.322H841.569V156.391C841.569 156.391 839.277 156 837.085 156C832.509 156 829.517 158.774 829.517 163.795V168.209H824.431V174H829.517V188H835.778V174H840.446Z" fill="#5373FD"/>
</g>
<path d="M903.711 165.482C903.731 165.766 903.731 166.051 903.731 166.335C903.731 175.005 897.132 184.995 885.071 184.995C881.355 184.995 877.904 183.919 875 182.051C875.528 182.111 876.035 182.132 876.584 182.132C879.65 182.132 882.472 181.096 884.726 179.33C881.843 179.269 879.426 177.381 878.594 174.782C879 174.842 879.406 174.883 879.832 174.883C880.421 174.883 881.01 174.802 881.558 174.66C878.553 174.051 876.299 171.411 876.299 168.223V168.142C877.173 168.629 878.188 168.934 879.264 168.974C877.497 167.797 876.34 165.787 876.34 163.512C876.34 162.294 876.665 161.177 877.233 160.203C880.462 164.183 885.315 166.781 890.756 167.066C890.655 166.578 890.594 166.071 890.594 165.563C890.594 161.949 893.518 159.005 897.152 159.005C899.04 159.005 900.746 159.797 901.944 161.076C903.426 160.792 904.848 160.243 906.107 159.492C905.619 161.015 904.584 162.294 903.223 163.106C904.543 162.964 905.822 162.599 907 162.091C906.107 163.391 904.99 164.548 903.711 165.482V165.482Z" fill="#5373FD"/>
<path d="M965 158H940.994C939.894 158 939 158.906 939 160.019V183.981C939 185.094 939.894 186 940.994 186H965C966.1 186 967 185.094 967 183.981V160.019C967 158.906 966.1 158 965 158ZM947.462 182H943.312V168.637H947.469V182H947.462ZM945.387 166.812C944.056 166.812 942.981 165.731 942.981 164.406C942.981 163.081 944.056 162 945.387 162C946.712 162 947.794 163.081 947.794 164.406C947.794 165.737 946.719 166.812 945.387 166.812V166.812ZM963.019 182H958.869V175.5C958.869 173.95 958.837 171.956 956.712 171.956C954.55 171.956 954.219 173.644 954.219 175.388V182H950.069V168.637H954.05V170.462H954.106C954.662 169.412 956.019 168.306 958.038 168.306C962.238 168.306 963.019 171.075 963.019 174.675V182V182Z" fill="white"/>
<path d="M1033.35 163.755C1032.96 162.277 1031.8 161.113 1030.34 160.718C1027.67 160 1017 160 1017 160C1017 160 1006.33 160 1003.66 160.718C1002.2 161.113 1001.04 162.277 1000.65 163.755C999.933 166.434 999.933 172.024 999.933 172.024C999.933 172.024 999.933 177.614 1000.65 180.293C1001.04 181.771 1002.2 182.887 1003.66 183.282C1006.33 184 1017 184 1017 184C1017 184 1027.67 184 1030.34 183.282C1031.8 182.887 1032.96 181.771 1033.35 180.293C1034.07 177.614 1034.07 172.024 1034.07 172.024C1034.07 172.024 1034.07 166.434 1033.35 163.755V163.755ZM1013.51 177.099V166.949L1022.43 172.024L1013.51 177.099V177.099Z" fill="#5373FD"/>
<g clip-path="url(#clip1_1_300)">
<path d="M1098 172C1098 180.562 1091.06 187.5 1082.5 187.5C1080.9 187.5 1079.36 187.256 1077.91 186.806C1078.54 185.775 1079.49 184.087 1079.84 182.744C1080.02 182.019 1080.8 179.056 1080.8 179.056C1081.31 180.019 1082.78 180.837 1084.35 180.837C1089.03 180.837 1092.39 176.538 1092.39 171.194C1092.39 166.075 1088.21 162.244 1082.84 162.244C1076.15 162.244 1072.59 166.731 1072.59 171.625C1072.59 173.9 1073.81 176.731 1075.74 177.631C1076.03 177.769 1076.19 177.706 1076.26 177.425C1076.31 177.212 1076.57 176.156 1076.69 175.669C1076.73 175.513 1076.71 175.375 1076.58 175.225C1075.95 174.444 1075.44 173.019 1075.44 171.688C1075.44 168.269 1078.03 164.962 1082.44 164.962C1086.24 164.962 1088.91 167.556 1088.91 171.269C1088.91 175.463 1086.79 178.369 1084.04 178.369C1082.52 178.369 1081.37 177.113 1081.74 175.569C1082.18 173.725 1083.02 171.737 1083.02 170.406C1083.02 169.219 1082.39 168.225 1081.06 168.225C1079.51 168.225 1078.26 169.831 1078.26 171.988C1078.26 173.363 1078.72 174.288 1078.72 174.288C1078.72 174.288 1077.19 180.775 1076.91 181.987C1076.59 183.325 1076.72 185.212 1076.85 186.438C1071.09 184.181 1067 178.569 1067 172C1067 163.438 1073.94 156.5 1082.5 156.5C1091.06 156.5 1098 163.438 1098 172Z" fill="#5373FD"/>
</g>
<path d="M871.692 121.684C871.347 121.507 870.969 121.353 870.558 121.222C870.147 121.091 869.751 121.026 869.368 121.026C868.817 121.026 868.379 121.152 868.052 121.404C867.735 121.656 867.576 121.997 867.576 122.426C867.576 122.734 867.679 122.995 867.884 123.21C868.099 123.425 868.369 123.616 868.696 123.784C869.032 123.943 869.387 124.092 869.76 124.232C870.18 124.391 870.586 124.582 870.978 124.806C871.37 125.03 871.692 125.333 871.944 125.716C872.205 126.089 872.336 126.593 872.336 127.228C872.336 127.769 872.201 128.259 871.93 128.698C871.659 129.127 871.277 129.473 870.782 129.734C870.287 129.986 869.699 130.112 869.018 130.112C868.346 130.112 867.721 130.005 867.142 129.79C866.573 129.575 866.087 129.328 865.686 129.048L866.288 127.97C866.615 128.222 867.016 128.441 867.492 128.628C867.977 128.815 868.439 128.908 868.878 128.908C869.205 128.908 869.522 128.852 869.83 128.74C870.147 128.628 870.409 128.451 870.614 128.208C870.819 127.956 870.922 127.634 870.922 127.242C870.922 126.906 870.829 126.621 870.642 126.388C870.455 126.155 870.213 125.959 869.914 125.8C869.625 125.632 869.307 125.483 868.962 125.352C868.645 125.24 868.323 125.109 867.996 124.96C867.669 124.811 867.366 124.633 867.086 124.428C866.815 124.213 866.596 123.952 866.428 123.644C866.26 123.336 866.176 122.963 866.176 122.524C866.176 121.992 866.302 121.53 866.554 121.138C866.815 120.737 867.17 120.424 867.618 120.2C868.066 119.967 868.584 119.841 869.172 119.822C869.816 119.822 870.385 119.901 870.88 120.06C871.384 120.219 871.827 120.41 872.21 120.634L871.692 121.684ZM879.504 130.14C878.954 130.14 878.454 130.023 878.006 129.79C877.568 129.557 877.218 129.216 876.956 128.768C876.704 128.311 876.578 127.755 876.578 127.102C876.578 126.449 876.709 125.889 876.97 125.422C877.241 124.955 877.6 124.596 878.048 124.344C878.506 124.092 879.005 123.966 879.546 123.966C880.069 123.966 880.512 124.078 880.876 124.302C881.24 124.526 881.525 124.797 881.73 125.114L881.828 124.204H883.032V130H881.73V129.048C881.618 129.197 881.455 129.356 881.24 129.524C881.035 129.692 880.783 129.837 880.484 129.958C880.195 130.079 879.868 130.14 879.504 130.14ZM879.854 129.062C880.33 129.062 880.736 128.931 881.072 128.67C881.408 128.399 881.628 128.035 881.73 127.578V126.43C881.618 126.029 881.385 125.697 881.03 125.436C880.676 125.175 880.27 125.044 879.812 125.044C879.458 125.044 879.136 125.128 878.846 125.296C878.557 125.464 878.324 125.697 878.146 125.996C877.978 126.295 877.894 126.64 877.894 127.032C877.894 127.415 877.983 127.76 878.16 128.068C878.338 128.367 878.576 128.609 878.874 128.796C879.173 128.973 879.5 129.062 879.854 129.062ZM888.575 130V125.366H887.581V124.19H888.575V121.754C888.575 120.914 888.767 120.27 889.149 119.822C889.532 119.374 890.092 119.15 890.829 119.15C891.016 119.15 891.226 119.178 891.459 119.234C891.702 119.29 891.917 119.379 892.103 119.5L891.543 120.452C891.459 120.368 891.366 120.312 891.263 120.284C891.161 120.247 891.058 120.228 890.955 120.228C890.619 120.228 890.353 120.345 890.157 120.578C889.971 120.811 889.877 121.208 889.877 121.768V124.19H891.725V125.366H889.877V130H888.575ZM898.591 130.14C897.938 130.14 897.368 130.009 896.883 129.748C896.407 129.477 896.038 129.109 895.777 128.642C895.525 128.175 895.399 127.648 895.399 127.06C895.399 126.491 895.539 125.973 895.819 125.506C896.108 125.03 896.496 124.657 896.981 124.386C897.476 124.106 898.022 123.966 898.619 123.966C899.384 123.966 900.019 124.19 900.523 124.638C901.027 125.086 901.372 125.702 901.559 126.486L896.967 128.096C897.126 128.385 897.35 128.614 897.639 128.782C897.928 128.941 898.255 129.02 898.619 129.02C898.88 129.02 899.128 128.973 899.361 128.88C899.594 128.787 899.818 128.665 900.033 128.516L900.635 129.482C900.336 129.678 900.005 129.837 899.641 129.958C899.286 130.079 898.936 130.14 898.591 130.14ZM896.687 126.99C896.678 127.102 896.682 127.209 896.701 127.312L900.075 126.066C899.944 125.786 899.753 125.539 899.501 125.324C899.258 125.109 898.932 125.002 898.521 125.002C897.989 125.002 897.55 125.189 897.205 125.562C896.86 125.935 896.687 126.411 896.687 126.99ZM912.786 119.878H919.506V121.18H916.79V130H915.432V121.18H912.786V119.878ZM924.483 124.204L924.581 125.562C924.739 125.235 924.959 124.955 925.239 124.722C925.519 124.479 925.808 124.297 926.107 124.176C926.415 124.045 926.681 123.975 926.905 123.966L926.849 125.268C926.41 125.249 926.023 125.338 925.687 125.534C925.351 125.721 925.089 125.977 924.903 126.304C924.716 126.631 924.623 126.981 924.623 127.354V130H923.321V124.204H924.483ZM933.67 130.14C933.119 130.14 932.62 130.023 932.172 129.79C931.733 129.557 931.383 129.216 931.122 128.768C930.87 128.311 930.744 127.755 930.744 127.102C930.744 126.449 930.874 125.889 931.136 125.422C931.406 124.955 931.766 124.596 932.214 124.344C932.671 124.092 933.17 123.966 933.712 123.966C934.234 123.966 934.678 124.078 935.042 124.302C935.406 124.526 935.69 124.797 935.896 125.114L935.994 124.204H937.198V130H935.896V129.048C935.784 129.197 935.62 129.356 935.406 129.524C935.2 129.692 934.948 129.837 934.65 129.958C934.36 130.079 934.034 130.14 933.67 130.14ZM934.02 129.062C934.496 129.062 934.902 128.931 935.238 128.67C935.574 128.399 935.793 128.035 935.896 127.578V126.43C935.784 126.029 935.55 125.697 935.196 125.436C934.841 125.175 934.435 125.044 933.978 125.044C933.623 125.044 933.301 125.128 933.012 125.296C932.722 125.464 932.489 125.697 932.312 125.996C932.144 126.295 932.06 126.64 932.06 127.032C932.06 127.415 932.148 127.76 932.326 128.068C932.503 128.367 932.741 128.609 933.04 128.796C933.338 128.973 933.665 129.062 934.02 129.062ZM944.616 130.168L941.396 124.204H942.95L944.7 127.914L946.324 124.204H947.78L944.686 130.168H944.616ZM954.534 130.14C953.88 130.14 953.311 130.009 952.826 129.748C952.35 129.477 951.981 129.109 951.72 128.642C951.468 128.175 951.342 127.648 951.342 127.06C951.342 126.491 951.482 125.973 951.762 125.506C952.051 125.03 952.438 124.657 952.924 124.386C953.418 124.106 953.964 123.966 954.562 123.966C955.327 123.966 955.962 124.19 956.466 124.638C956.97 125.086 957.315 125.702 957.502 126.486L952.91 128.096C953.068 128.385 953.292 128.614 953.582 128.782C953.871 128.941 954.198 129.02 954.562 129.02C954.823 129.02 955.07 128.973 955.304 128.88C955.537 128.787 955.761 128.665 955.976 128.516L956.578 129.482C956.279 129.678 955.948 129.837 955.584 129.958C955.229 130.079 954.879 130.14 954.534 130.14ZM952.63 126.99C952.62 127.102 952.625 127.209 952.644 127.312L956.018 126.066C955.887 125.786 955.696 125.539 955.444 125.324C955.201 125.109 954.874 125.002 954.464 125.002C953.932 125.002 953.493 125.189 953.148 125.562C952.802 125.935 952.63 126.411 952.63 126.99ZM961.919 119.15H963.221V130H961.919V119.15ZM974.831 130L979.255 119.458H979.339L983.763 130H982.195L981.145 127.34H977.253L976.175 130H974.831ZM977.729 126.164H980.683L979.241 122.482L977.729 126.164ZM989.31 124.204L989.394 125.324C989.59 124.913 989.893 124.587 990.304 124.344C990.714 124.101 991.19 123.98 991.732 123.98C992.273 123.98 992.716 124.143 993.062 124.47C993.416 124.787 993.603 125.203 993.622 125.716V130H992.306V126.164C992.287 125.856 992.189 125.604 992.012 125.408C991.844 125.212 991.578 125.109 991.214 125.1C990.71 125.1 990.285 125.305 989.94 125.716C989.604 126.117 989.436 126.64 989.436 127.284V130H988.134V124.204H989.31ZM998.957 132.786L1000.29 129.818L997.599 124.204H999.069L1000.93 128.334L1002.78 124.204H1003.98L1000.24 132.786H998.957ZM1011.91 124.204L1013.48 127.816L1014.95 124.204H1016.23L1013.56 130.35L1011.7 126.374L1010 130.35L1007.32 124.204H1008.6L1010.14 127.718L1011.24 125.198L1010.77 124.204H1011.91ZM1020.43 130V119.15H1021.71V125.254C1021.91 124.881 1022.21 124.577 1022.62 124.344C1023.02 124.101 1023.49 123.98 1024.03 123.98C1024.57 123.98 1025.01 124.143 1025.36 124.47C1025.71 124.787 1025.9 125.203 1025.92 125.716V130H1024.6V126.164C1024.59 125.856 1024.49 125.604 1024.31 125.408C1024.14 125.212 1023.88 125.109 1023.51 125.1C1023.18 125.1 1022.87 125.198 1022.6 125.394C1022.34 125.581 1022.13 125.837 1021.97 126.164C1021.81 126.491 1021.73 126.864 1021.73 127.284V130H1020.43ZM1033.66 130.14C1033.01 130.14 1032.44 130.009 1031.95 129.748C1031.47 129.477 1031.11 129.109 1030.84 128.642C1030.59 128.175 1030.47 127.648 1030.47 127.06C1030.47 126.491 1030.61 125.973 1030.89 125.506C1031.18 125.03 1031.56 124.657 1032.05 124.386C1032.54 124.106 1033.09 123.966 1033.69 123.966C1034.45 123.966 1035.09 124.19 1035.59 124.638C1036.09 125.086 1036.44 125.702 1036.63 126.486L1032.03 128.096C1032.19 128.385 1032.42 128.614 1032.71 128.782C1033 128.941 1033.32 129.02 1033.69 129.02C1033.95 129.02 1034.2 128.973 1034.43 128.88C1034.66 128.787 1034.89 128.665 1035.1 128.516L1035.7 129.482C1035.4 129.678 1035.07 129.837 1034.71 129.958C1034.35 130.079 1034 130.14 1033.66 130.14ZM1031.75 126.99C1031.75 127.102 1031.75 127.209 1031.77 127.312L1035.14 126.066C1035.01 125.786 1034.82 125.539 1034.57 125.324C1034.33 125.109 1034 125.002 1033.59 125.002C1033.06 125.002 1032.62 125.189 1032.27 125.562C1031.93 125.935 1031.75 126.411 1031.75 126.99ZM1042.21 124.204L1042.3 125.562C1042.46 125.235 1042.68 124.955 1042.96 124.722C1043.24 124.479 1043.53 124.297 1043.83 124.176C1044.14 124.045 1044.4 123.975 1044.63 123.966L1044.57 125.268C1044.13 125.249 1043.75 125.338 1043.41 125.534C1043.07 125.721 1042.81 125.977 1042.63 126.304C1042.44 126.631 1042.35 126.981 1042.35 127.354V130H1041.04V124.204H1042.21ZM1051.55 130.14C1050.9 130.14 1050.33 130.009 1049.84 129.748C1049.37 129.477 1049 129.109 1048.74 128.642C1048.48 128.175 1048.36 127.648 1048.36 127.06C1048.36 126.491 1048.5 125.973 1048.78 125.506C1049.07 125.03 1049.45 124.657 1049.94 124.386C1050.43 124.106 1050.98 123.966 1051.58 123.966C1052.34 123.966 1052.98 124.19 1053.48 124.638C1053.99 125.086 1054.33 125.702 1054.52 126.486L1049.93 128.096C1050.08 128.385 1050.31 128.614 1050.6 128.782C1050.89 128.941 1051.21 129.02 1051.58 129.02C1051.84 129.02 1052.09 128.973 1052.32 128.88C1052.55 128.787 1052.78 128.665 1052.99 128.516L1053.59 129.482C1053.29 129.678 1052.96 129.837 1052.6 129.958C1052.24 130.079 1051.89 130.14 1051.55 130.14ZM1049.65 126.99C1049.64 127.102 1049.64 127.209 1049.66 127.312L1053.03 126.066C1052.9 125.786 1052.71 125.539 1052.46 125.324C1052.22 125.109 1051.89 125.002 1051.48 125.002C1050.95 125.002 1050.51 125.189 1050.16 125.562C1049.82 125.935 1049.65 126.411 1049.65 126.99Z" fill="white"/>
<path d="M883.464 82.336C885.304 82.336 886.768 82.712 887.856 83.464C888.944 84.2 889.488 85.304 889.488 86.776C889.488 87.672 889.296 88.448 888.912 89.104C888.544 89.76 888.032 90.288 887.376 90.688C888.288 91.12 889.008 91.688 889.536 92.392C890.064 93.08 890.328 93.88 890.328 94.792C890.328 95.752 890.152 96.568 889.8 97.24C889.464 97.896 889 98.432 888.408 98.848C887.832 99.248 887.176 99.544 886.44 99.736C885.704 99.912 884.944 100 884.16 100H878.28V82.336H883.464ZM883.872 89.56C884.56 89.56 885.064 89.352 885.384 88.936C885.72 88.52 885.888 88.048 885.888 87.52C885.888 86.912 885.68 86.456 885.264 86.152C884.864 85.848 884.32 85.696 883.632 85.696H881.76V89.56H883.872ZM883.992 96.76C884.76 96.76 885.408 96.608 885.936 96.304C886.464 95.984 886.728 95.48 886.728 94.792C886.728 94.28 886.584 93.896 886.296 93.64C886.008 93.368 885.632 93.184 885.168 93.088C884.72 92.976 884.248 92.92 883.752 92.92H881.76V96.76H883.992ZM911.075 82.336V100H907.595V92.824H899.699V100H896.219V82.336H899.699V89.464H907.595V82.336H911.075ZM923.377 82.336C925.601 82.336 927.305 82.88 928.489 83.968C929.689 85.04 930.289 86.48 930.289 88.288C930.289 89.296 930.073 90.288 929.641 91.264C929.225 92.24 928.513 93.016 927.505 93.592L931.609 100H927.553L923.833 94.384H921.505V100H918.025V82.336H923.377ZM923.977 91.024C924.681 91.024 925.225 90.88 925.609 90.592C926.009 90.288 926.289 89.936 926.449 89.536C926.609 89.12 926.689 88.744 926.689 88.408C926.689 88.216 926.657 87.976 926.593 87.688C926.545 87.384 926.433 87.08 926.257 86.776C926.081 86.472 925.809 86.216 925.441 86.008C925.089 85.8 924.609 85.696 924.001 85.696H921.505V91.024H923.977ZM935.189 91.192C935.189 89.976 935.421 88.824 935.885 87.736C936.349 86.648 936.989 85.688 937.805 84.856C938.637 84.008 939.597 83.344 940.685 82.864C941.773 82.384 942.941 82.144 944.189 82.144C945.421 82.144 946.581 82.384 947.669 82.864C948.757 83.344 949.717 84.008 950.549 84.856C951.397 85.688 952.053 86.648 952.517 87.736C952.997 88.824 953.237 89.976 953.237 91.192C953.237 92.44 952.997 93.608 952.517 94.696C952.053 95.784 951.397 96.744 950.549 97.576C949.717 98.392 948.757 99.032 947.669 99.496C946.581 99.96 945.421 100.192 944.189 100.192C942.941 100.192 941.773 99.96 940.685 99.496C939.597 99.032 938.637 98.392 937.805 97.576C936.989 96.744 936.349 95.784 935.885 94.696C935.421 93.608 935.189 92.44 935.189 91.192ZM938.789 91.192C938.789 92.232 939.029 93.184 939.509 94.048C940.005 94.896 940.669 95.576 941.501 96.088C942.333 96.584 943.269 96.832 944.309 96.832C945.317 96.832 946.221 96.584 947.021 96.088C947.837 95.576 948.477 94.896 948.941 94.048C949.405 93.184 949.637 92.232 949.637 91.192C949.637 90.12 949.397 89.16 948.917 88.312C948.437 87.448 947.789 86.768 946.973 86.272C946.157 85.76 945.237 85.504 944.213 85.504C943.189 85.504 942.269 85.76 941.453 86.272C940.637 86.768 939.989 87.448 939.509 88.312C939.029 89.16 938.789 90.12 938.789 91.192ZM959.107 100V81.616H959.131L968.083 94.312L977.251 81.616H977.299V100H973.819V91.576L968.059 99.76H968.011L962.467 92.104V100H959.107ZM982.272 100L990.24 81.64H990.432L998.4 100H994.368L993 96.544H987.144L985.704 100H982.272ZM988.368 93.616H991.848L990.144 89.32L988.368 93.616ZM1001.1 91.192C1001.1 89.976 1001.33 88.824 1001.8 87.736C1002.26 86.648 1002.9 85.688 1003.72 84.856C1004.55 84.008 1005.51 83.344 1006.6 82.864C1007.68 82.384 1008.85 82.144 1010.1 82.144C1011.33 82.144 1012.49 82.384 1013.58 82.864C1014.67 83.344 1015.63 84.008 1016.46 84.856C1017.31 85.688 1017.96 86.648 1018.43 87.736C1018.91 88.824 1019.15 89.976 1019.15 91.192C1019.15 92.44 1018.91 93.608 1018.43 94.696C1017.96 95.784 1017.31 96.744 1016.46 97.576C1015.63 98.392 1014.67 99.032 1013.58 99.496C1012.49 99.96 1011.33 100.192 1010.1 100.192C1008.85 100.192 1007.68 99.96 1006.6 99.496C1005.51 99.032 1004.55 98.392 1003.72 97.576C1002.9 96.744 1002.26 95.784 1001.8 94.696C1001.33 93.608 1001.1 92.44 1001.1 91.192ZM1004.7 91.192C1004.7 92.232 1004.94 93.184 1005.42 94.048C1005.92 94.896 1006.58 95.576 1007.41 96.088C1008.24 96.584 1009.18 96.832 1010.22 96.832C1011.23 96.832 1012.13 96.584 1012.93 96.088C1013.75 95.576 1014.39 94.896 1014.85 94.048C1015.32 93.184 1015.55 92.232 1015.55 91.192C1015.55 90.12 1015.31 89.16 1014.83 88.312C1014.35 87.448 1013.7 86.768 1012.88 86.272C1012.07 85.76 1011.15 85.504 1010.12 85.504C1009.1 85.504 1008.18 85.76 1007.36 86.272C1006.55 86.768 1005.9 87.448 1005.42 88.312C1004.94 89.16 1004.7 90.12 1004.7 91.192ZM1040.83 100.72L1028.47 89.56L1028.55 100H1025.02V81.64H1025.16L1037.5 92.968L1037.43 82.336H1040.93V100.72H1040.83Z" fill="white"/>
</g>
<defs>
<filter id="filter0_d_1_300" x="819" y="156" width="28" height="40" filterUnits="userSpaceOnUse" color-interpolation-filters="sRGB">
<feFlood flood-opacity="0" result="BackgroundImageFix"/>
<feColorMatrix in="SourceAlpha" type="matrix" values="0 0 0 0 0 0 0 0 0 0 0 0 0 0 0 0 0 0 127 0" result="hardAlpha"/>
<feOffset dy="4"/>
<feGaussianBlur stdDeviation="2"/>
<feComposite in2="hardAlpha" operator="out"/>
<feColorMatrix type="matrix" values="0 0 0 0 0 0 0 0 0 0 0 0 0 0 0 0 0 0 0.25 0"/>
<feBlend mode="normal" in2="BackgroundImageFix" result="effect1_dropShadow_1_300"/>
<feBlend mode="normal" in="SourceGraphic" in2="effect1_dropShadow_1_300" result="shape"/>
</filter>
<clipPath id="clip0_1_300">
<rect width="1920" height="268" fill="white"/>
</clipPath>
<clipPath id="clip1_1_300">
<rect width="31" height="32" fill="white" transform="translate(1067 156)"/>
</clipPath>
</defs>
</symbol>
</svg>
